<svg width="175" height="133" viewBox="0 0 175 133" fill="none" xmlns="http://www.w3.org/2000/svg">
<g opacity="0.7" clip-path="url(#clip0_7_196)">
<path d="M149.104 126.614C149.869 126.662 150.291 125.711 149.713 125.156L149.655 124.927C149.663 124.909 149.67 124.89 149.678 124.872C150.451 123.025 153.071 123.038 153.838 124.887C154.518 126.529 155.384 128.174 155.598 129.909C155.693 130.675 155.65 131.456 155.481 132.208C157.075 128.719 157.914 124.91 157.914 121.079C157.914 120.116 157.861 119.153 157.754 118.193C157.665 117.408 157.543 116.627 157.386 115.854C156.532 111.673 154.685 107.691 152.02 104.365C150.739 103.664 149.67 102.567 149.025 101.253C148.793 100.779 148.611 100.269 148.525 99.749C148.671 99.7682 149.075 97.5437 148.965 97.4073C149.168 97.0984 149.532 96.9448 149.754 96.6435C150.858 95.1445 152.378 95.4062 153.172 97.4432C154.867 98.3005 154.884 99.7224 153.843 101.09C153.182 101.96 153.091 103.137 152.51 104.069C152.57 104.145 152.632 104.219 152.691 104.296C153.787 105.704 154.735 107.217 155.534 108.807C155.308 107.04 155.641 104.912 156.21 103.539C156.857 101.976 158.069 100.659 159.137 99.3076C160.42 97.6842 163.05 98.3927 163.276 100.451C163.278 100.471 163.28 100.491 163.282 100.51C163.123 100.6 162.968 100.695 162.816 100.796C161.951 101.369 162.25 102.714 163.276 102.873L163.299 102.876C163.241 103.448 163.143 104.016 163 104.574C164.37 109.881 161.412 111.814 157.19 111.901C157.096 111.949 157.006 111.996 156.912 112.042C157.34 113.249 157.682 114.487 157.935 115.741C158.162 116.85 158.32 117.971 158.409 119.096C158.519 120.516 158.509 121.943 158.389 123.36L158.397 123.31C158.7 121.749 159.546 120.291 160.775 119.28C162.605 117.774 165.191 117.22 167.165 116.009C168.115 115.426 169.333 116.179 169.167 117.283L169.159 117.336C168.865 117.456 168.579 117.595 168.301 117.75C168.143 117.84 167.987 117.935 167.836 118.036C166.97 118.609 167.269 119.954 168.295 120.112L168.318 120.116C168.335 120.118 168.349 120.121 168.366 120.123C167.861 121.323 167.159 122.436 166.279 123.396C165.423 128.029 161.744 128.469 157.809 127.12H157.806C157.376 128.997 156.747 130.831 155.94 132.579H149.271C149.247 132.505 149.226 132.428 149.204 132.354C149.821 132.392 150.442 132.356 151.049 132.244C150.555 131.636 150.06 131.023 149.565 130.414C149.553 130.402 149.544 130.391 149.534 130.379C149.283 130.067 149.03 129.758 148.779 129.447L148.779 129.447C148.763 128.491 148.877 127.539 149.104 126.615L149.104 126.614L149.104 126.614V126.614Z" fill="#F2F2F2"/>
<path d="M57.4454 132.559C57.4454 132.804 57.6415 133 57.8858 133H174.56C174.804 133 175 132.804 175 132.559C175 132.314 174.804 132.118 174.56 132.118H57.8858C57.6415 132.118 57.4454 132.314 57.4454 132.559H57.4454Z" fill="#CCCCCC"/>
<path d="M101.276 100.681L99.4738 102.13L98.8965 102.597C98.8447 102.527 98.7855 102.453 98.7263 102.386C98.1601 101.745 97.346 101.378 96.4949 101.378H82.0332C81.9851 101.133 81.974 100.884 81.9962 100.636C82.0591 99.9169 82.4033 99.2237 83.0102 98.738L93.1681 90.5637C94.3449 89.6146 96.0693 89.8037 97.0166 90.9863L101.698 96.8251C102.645 98.0077 102.456 99.7316 101.276 100.681L101.276 100.681Z" fill="#E6E6E6"/>
<path d="M98.249 101.378H80.3902C79.9239 101.378 79.4688 101.489 79.0617 101.696L78.9618 101.619C78.7842 101.481 78.6251 101.326 78.4955 101.159C77.7221 100.195 77.674 98.7973 78.4585 97.7742L83.0139 91.8353C83.9353 90.6341 85.656 90.408 86.855 91.3311L97.1832 99.283C97.6495 99.6389 97.964 100.117 98.1268 100.636C98.2008 100.877 98.2452 101.125 98.249 101.378Z" fill="#6C63FF"/>
<path d="M112.859 9.43918H7.03841C3.15656 9.43918 0 12.6014 0 16.4902V125.838C0 129.726 3.15656 132.889 7.03841 132.889H112.859C116.74 132.889 119.897 129.726 119.897 125.838V16.4902C119.897 12.6014 116.74 9.43918 112.859 9.43918ZM119.157 125.838C119.157 129.319 116.333 132.147 112.859 132.147H7.03841C3.56361 132.147 0.740105 129.319 0.740105 125.838V16.4902C0.740105 13.0092 3.56361 10.1806 7.03841 10.1806H112.859C116.333 10.1806 119.157 13.0092 119.157 16.4902V125.838Z" fill="#3F3D56"/>
<path d="M47.7479 16.6126H37.3642C36.8424 16.6126 36.4169 17.0389 36.4169 17.5616C36.4169 18.088 36.8424 18.5144 37.3642 18.5144H47.7479C48.2697 18.5144 48.6952 18.088 48.6952 17.5616C48.6952 17.0389 48.2697 16.6126 47.7479 16.6126Z" fill="#E6E6E6"/>
<path d="M65.1404 16.6126H54.7567C54.2349 16.6126 53.8093 17.0389 53.8093 17.5616C53.8093 18.088 54.2349 18.5144 54.7567 18.5144H65.1404C65.6621 18.5144 66.0877 18.088 66.0877 17.5616C66.0877 17.0389 65.6621 16.6126 65.1404 16.6126Z" fill="#E6E6E6"/>
<path d="M82.5328 16.6126H72.1491C71.6274 16.6126 71.2018 17.0389 71.2018 17.5616C71.2018 18.088 71.6274 18.5144 72.1491 18.5144H82.5328C83.0546 18.5144 83.4802 18.088 83.4802 17.5616C83.4802 17.0389 83.0546 16.6126 82.5328 16.6126Z" fill="#E6E6E6"/>
<path d="M32.4166 35.5749H19.3908C17.7773 35.5749 16.4673 36.8872 16.4673 38.5036V45.9921C16.4673 47.6084 17.7773 48.9208 19.3908 48.9208H32.4166C34.03 48.9208 35.34 47.6084 35.34 45.9921V38.5036C35.34 36.8872 34.03 35.5749 32.4166 35.5749H32.4166Z" fill="#F2F2F2"/>
<path d="M32.4166 55.223H19.3908C17.7773 55.223 16.4673 56.5354 16.4673 58.1517V65.6402C16.4673 67.2566 17.7773 68.5689 19.3908 68.5689H32.4166C34.03 68.5689 35.34 67.2565 35.34 65.6402V58.1517C35.34 56.5354 34.03 55.223 32.4166 55.223H32.4166Z" fill="#E6E6E6"/>
<path d="M32.4166 74.8711H19.3908C17.7773 74.8711 16.4673 76.1835 16.4673 77.7998V85.2883C16.4673 86.9047 17.7773 88.217 19.3908 88.217H32.4166C34.03 88.217 35.34 86.9046 35.34 85.2883V77.7998C35.34 76.1835 34.03 74.8711 32.4166 74.8711H32.4166Z" fill="#E6E6E6"/>
<path d="M61.2807 35.5749H48.2548C46.6414 35.5749 45.3314 36.8872 45.3314 38.5036V45.9921C45.3314 47.6084 46.6414 48.9208 48.2548 48.9208H61.2807C62.8941 48.9208 64.2041 47.6084 64.2041 45.9921V38.5036C64.2041 36.8872 62.8941 35.5749 61.2807 35.5749Z" fill="#E6E6E6"/>
<path d="M61.2807 55.223H48.2548C46.6414 55.223 45.3314 56.5354 45.3314 58.1517V65.6402C45.3314 67.2566 46.6414 68.5689 48.2548 68.5689H61.2807C62.8941 68.5689 64.2041 67.2565 64.2041 65.6402V58.1517C64.2041 56.5354 62.8941 55.223 61.2807 55.223Z" fill="#F2F2F2"/>
<path d="M90.1448 55.223H77.1189C75.5055 55.223 74.1955 56.5354 74.1955 58.1517V65.6402C74.1955 67.2566 75.5055 68.5689 77.1189 68.5689H90.1448C91.7582 68.5689 93.0682 67.2565 93.0682 65.6402V58.1517C93.0682 56.5354 91.7582 55.223 90.1448 55.223Z" fill="#E6E6E6"/>
<path d="M99.6588 111.202H20.2382C16.9336 111.202 14.247 113.893 14.247 117.204V122.623C14.247 125.934 16.9336 128.625 20.2382 128.625H99.6588C102.963 128.625 105.65 125.934 105.65 122.623V117.204C105.65 113.893 102.963 111.202 99.6588 111.202Z" fill="#F2F2F2"/>
<path d="M102.434 100.647C102.371 100.569 102.308 100.488 102.242 100.414C101.535 99.6129 100.521 99.1532 99.4553 99.1532C92.7453 100.152 85.8942 100.132 78.91 99.1532C78.2365 99.1532 77.5852 99.3386 77.0153 99.6759C76.686 99.8687 76.3825 100.117 76.1235 100.414C75.4167 101.211 75.0873 102.278 75.2169 103.339L78.4622 129.619C78.6917 131.484 80.2792 132.889 82.1516 132.889H96.2136C98.0861 132.889 99.6736 131.484 99.9031 129.619L103.148 103.339C103.267 102.379 103.008 101.415 102.434 100.647Z" fill="white"/>
<path d="M102.434 100.647C102.371 100.569 102.308 100.488 102.242 100.414C101.535 99.6129 100.521 99.1532 99.4553 99.1532C92.6069 99.8888 85.7584 99.8888 78.91 99.1532C78.2365 99.1532 77.5852 99.3386 77.0153 99.6759C76.686 99.8687 76.3825 100.117 76.1235 100.414C75.4167 101.211 75.0873 102.278 75.2169 103.339L78.4622 129.619C78.5473 130.32 78.8249 130.954 79.2356 131.473C79.9202 132.336 80.9712 132.885 82.1369 132.889H96.2136C97.5199 132.889 98.6893 132.203 99.3517 131.157C99.6403 130.701 99.8328 130.182 99.9031 129.619L103.148 103.339C103.267 102.379 103.008 101.415 102.434 100.647ZM102.412 103.246L99.1704 129.526C99.1704 129.534 99.1667 129.545 99.1667 129.552C98.9705 131.035 97.705 132.147 96.2136 132.147H82.1516C80.6603 132.147 79.3948 131.035 79.1986 129.552C79.1986 129.545 79.1949 129.534 79.1949 129.526L75.9533 103.246C75.8496 102.397 76.1124 101.544 76.6786 100.903C76.9339 100.614 77.241 100.38 77.5815 100.213C77.9886 100.006 78.4437 99.8947 78.91 99.8947C85.7585 101.23 92.607 101.23 99.4553 99.8947C100.306 99.8947 101.121 100.262 101.687 100.903C101.746 100.97 101.805 101.044 101.857 101.114C102.305 101.726 102.505 102.49 102.412 103.246Z" fill="#3F3D56"/>
<path d="M99.5441 129.552L99.3517 131.157C98.6893 132.203 97.5199 132.889 96.2136 132.889H82.1369C80.9712 132.885 79.9202 132.336 79.2356 131.473L79.1912 129.552H99.5441Z" fill="#3F3D56"/>
<path d="M114.358 43.4801L96.6454 55.674L94.4618 53.3092L110.755 39.6322L114.358 43.4801Z" fill="#A0616A"/>
<path d="M95.2802 57.752C97.0235 56.3493 97.7627 54.3716 96.9314 53.3347C96.1001 52.2978 94.013 52.5942 92.2697 53.9969C90.5264 55.3995 89.7871 57.3772 90.6184 58.4142C91.4497 59.4511 93.5369 59.1546 95.2802 57.752Z" fill="#A0616A"/>
<path d="M123.452 130.868L120.086 130.867L118.485 117.862L123.453 117.863L123.452 130.868Z" fill="#A0616A"/>
<path d="M111.921 130.791C111.816 130.968 111.761 131.539 111.761 131.744C111.761 132.376 112.272 132.889 112.903 132.889H123.326C123.756 132.889 124.105 132.539 124.105 132.108V131.673C124.105 131.673 124.621 130.367 123.559 128.756C123.559 128.756 122.24 130.017 120.269 128.042L119.687 126.987L115.479 130.071L113.146 130.358C112.636 130.421 112.184 130.348 111.921 130.791Z" fill="#2F2E41"/>
<path d="M134.826 130.868L131.46 130.867L129.859 117.862L134.826 117.863L134.826 130.868Z" fill="#A0616A"/>
<path d="M123.295 130.791C123.19 130.968 123.135 131.539 123.135 131.744C123.135 132.376 123.646 132.889 124.277 132.889H134.7C135.13 132.889 135.479 132.539 135.479 132.108V131.673C135.479 131.673 135.995 130.367 134.933 128.756C134.933 128.756 133.614 130.017 131.642 128.042L131.061 126.987L126.853 130.071L124.52 130.358C124.01 130.421 123.557 130.348 123.295 130.791Z" fill="#2F2E41"/>
<path d="M117.659 58.3809L113.804 95.4603C113.804 95.4603 116.503 120.759 117.081 120.759C117.659 120.759 118.238 121.237 117.659 121.77C117.081 122.304 116.31 122.69 117.081 122.69C117.852 122.69 117.946 122.455 117.899 123.249C117.852 124.042 117.274 124.622 117.274 124.622L125.177 124.042L124.214 98.164L127.876 77.5C127.876 77.5 129.033 120.566 129.418 120.952C129.804 121.339 129.804 120.373 129.804 121.339C129.804 122.304 129.418 122.69 129.418 122.69L129.4 124.622H135.138L143.298 70.9338L141.949 57.4153L117.659 58.3809V58.3809Z" fill="#2F2E41"/>
<path d="M136.551 18.4047H129.611L125.448 19.4486C123.199 20.7861 119.168 24.7666 119.27 27.3844L120.165 50.4629C120.165 50.4629 117.098 57.7041 117.677 57.7041C118.255 57.7041 115.442 60.0225 115.442 61.3743C115.442 62.7262 114.478 62.533 115.057 63.1124C115.635 63.6918 143.298 63.1124 143.298 63.1124C143.298 63.1124 143.587 62.533 143.587 61.5674C143.587 60.6018 144.161 60.027 144.161 60.027V58.2137L142.431 51.9113L145.515 23.7156L136.551 18.4047Z" fill="#6C63FF"/>
<path d="M101.914 46.5712L104.277 50.6701C105.567 49.8874 111.801 46.136 112.879 46.0488C113.285 46.0158 113.376 45.9395 113.394 45.9166C113.412 45.8942 113.407 45.8439 113.396 45.7635C113.379 45.639 113.354 45.4507 113.499 45.29C113.713 45.0543 113.9 45.1962 113.991 45.2643C114.131 45.3703 114.366 45.5477 115.124 45.4402C115.318 45.4127 115.44 45.3892 115.516 45.3707L115.508 45.3627C115.343 45.2067 115.066 44.9457 115.046 44.5264C115.028 44.151 115.023 44.0504 115.16 43.9856C115.286 43.9266 115.384 44.0153 115.443 44.0681C115.541 44.1583 115.704 44.3056 116.039 44.2929C116.895 44.0124 124.854 32.5009 126.407 27.915C126.794 26.7732 126.746 25.7128 126.265 24.7639C125.343 22.9445 123.084 22.0331 122.526 21.8315L111.229 37.7156L101.914 46.5712H101.914Z" fill="#6C63FF"/>
<path d="M133.204 16.9186C137.332 16.9186 140.679 13.5657 140.679 9.4298C140.679 5.29386 137.332 1.94101 133.204 1.94101C129.075 1.94101 125.728 5.29386 125.728 9.4298C125.728 13.5657 129.075 16.9186 133.204 16.9186Z" fill="#A0616A"/>
<path d="M142.248 4.87846C141.591 3.46713 140.135 2.37052 138.582 2.45052C138.676 2.05879 138.503 1.63955 138.224 1.34941C137.945 1.05929 137.574 0.87773 137.201 0.725272C135.362 -0.0282485 133.29 -0.201119 131.352 0.237142C131.157 -0.0327862 128.391 0.648477 128.722 0.793106C129.052 0.937761 127.843 1.28323 127.786 1.6403C127.723 2.03152 127.309 2.27137 126.918 2.33239C126.528 2.39344 126.124 2.33402 125.736 2.40819C124.953 2.55764 125.829 3.52207 125.818 4.32055C125.807 5.11905 124.909 5.66626 125.688 5.83773C126.491 6.01472 125.38 7.44015 126.188 7.28631C128.016 6.9383 136.001 6.19632 136.712 7.91966C136.909 8.39817 137.033 8.94036 137.421 9.28261C137.949 9.7485 138.828 9.71105 139.26 10.2674C139.608 10.716 139.508 11.3745 139.251 11.8807C138.993 12.387 138.602 12.8181 138.369 13.336C138.056 14.0303 138.058 14.8037 138.147 15.5715C138.216 15.5354 138.322 15.4993 138.481 15.4632L138.413 15.4718C140.408 14.0161 141.873 11.8483 142.483 9.45229C142.866 7.94326 142.905 6.2898 142.248 4.87847V4.87846Z" fill="#2F2E41"/>
<path d="M147.504 67.2714H134.476C132.964 67.2714 131.739 68.4992 131.739 70.0138V77.5041C131.739 79.0187 132.964 80.2466 134.476 80.2466H147.504C149.016 80.2466 150.241 79.0187 150.241 77.5041V70.0138C150.241 68.4992 149.016 67.2714 147.504 67.2714Z" fill="#6C63FF"/>
<path d="M150.101 46.3321L142.711 66.5494L139.564 65.8884L144.94 45.2852L150.101 46.3321Z" fill="#A0616A"/>
<path d="M142.799 69.0355C143.41 66.8806 142.869 64.8394 141.592 64.4764C140.315 64.1134 138.784 65.566 138.174 67.7209C137.564 69.8758 138.105 71.917 139.382 72.28C140.659 72.643 142.189 71.1904 142.799 69.0355Z" fill="#A0616A"/>
<path d="M138.03 19.4486C138.03 19.4486 146.093 20.8188 148.021 25.2605C149.949 29.7023 151.877 43.9934 151.298 44.5727C150.72 45.1521 150.142 44.5727 150.72 45.1521C151.298 45.7314 152.278 44.9681 151.403 46.0257C150.527 47.0833 150.142 46.5039 150.142 46.8902C150.142 47.2764 150.913 47.1715 150.142 47.9965C149.371 48.8214 146.865 57.3188 146.865 57.3188L142.045 55.7738L143.009 42.8346L138.03 19.4486V19.4486Z" fill="#6C63FF"/>
<path d="M99.397 56.5205H86.3694C84.8575 56.5205 83.6319 57.7484 83.6319 59.263V66.7533C83.6319 68.2679 84.8575 69.4957 86.3694 69.4957H99.397C100.909 69.4957 102.134 68.2679 102.134 66.7533V59.263C102.134 57.7484 100.909 56.5205 99.397 56.5205Z" fill="#3F3D56"/>
<path d="M75.8654 103.973L75.8561 104.714L102.43 105.05L102.439 104.308L75.8654 103.973Z" fill="#3F3D56"/>
</g>
<defs>
<clipPath id="clip0_7_196">
<rect width="175" height="133" fill="white"/>
</clipPath>
</defs>
</svg>
