<svg width="382" height="115" viewBox="0 0 382 115" fill="none" xmlns="http://www.w3.org/2000/svg">
<path d="M0 8C0 3.58172 3.58172 0 8 0H374C378.418 0 382 3.58172 382 8V107C382 111.418 378.418 115 374 115H7.99999C3.58172 115 0 111.418 0 107V8Z" fill="white"/>
<path d="M284.793 105.5L254.786 72.013C244.691 60.435 230.609 60.281 220.4 71.638L218.956 73.245C210.88 82.229 199.691 81.832 191.916 72.285L169.74 45.06C154.684 26.573 133.062 25.593 117.268 42.681L58.3638 105.25" stroke="#0055FF" stroke-linecap="round" stroke-linejoin="round"/>
<path d="M324.114 105.25L259.442 37.06C242.023 18.573 217.009 17.593 198.736 34.681L177.392 54.455" stroke="#0055FF" stroke-linecap="round" stroke-linejoin="round"/>
<path fill-rule="evenodd" clip-rule="evenodd" d="M170.392 18.5C170.392 22.366 173.527 25.5 177.392 25.5C181.258 25.5 184.392 22.366 184.392 18.5C184.392 14.634 181.258 11.5 177.392 11.5C173.527 11.5 170.392 14.634 170.392 18.5Z" stroke="#0055FF" stroke-linecap="round" stroke-linejoin="round"/>
<path d="M8 1H374V-1H8V1ZM381 8V107H383V8H381ZM374 114H7.99999V116H374V114ZM1 107V8H-1V107H1ZM7.99999 114C4.134 114 1 110.866 1 107H-1C-1 111.971 3.02943 116 7.99999 116V114ZM381 107C381 110.866 377.866 114 374 114V116C378.971 116 383 111.971 383 107H381ZM374 1C377.866 1 381 4.13401 381 8H383C383 3.02944 378.971 -1 374 -1V1ZM8 -1C3.02944 -1 -1 3.02944 -1 8H1C1 4.13401 4.13401 1 8 1V-1Z" fill="#3A7BFF"/>
</svg>
